<mxfile host="app.diagrams.net" agent="Mozilla/5.0 (Macintosh; Intel Mac OS X 10_15_7) AppleWebKit/537.36 (KHTML, like Gecko) Chrome/129.0.0.0 Safari/537.36" version="24.7.17">
  <diagram name="第 1 页" id="pAWTvNZDLCY3GigcubW4">
    <mxGraphModel dx="1035" dy="654" grid="1" gridSize="10" guides="1" tooltips="1" connect="1" arrows="1" fold="1" page="1" pageScale="1" pageWidth="827" pageHeight="1169" math="0" shadow="0">
      <root>
        <mxCell id="0" />
        <mxCell id="1" parent="0" />
        <mxCell id="-SrFhzklI3_z7_42w4xo-48" value="" style="rounded=0;whiteSpace=wrap;html=1;" vertex="1" parent="1">
          <mxGeometry x="2820" y="400" width="1040" height="450" as="geometry" />
        </mxCell>
        <mxCell id="BUo7MnpyOWrACCl7GvEu-11" style="edgeStyle=orthogonalEdgeStyle;rounded=0;orthogonalLoop=1;jettySize=auto;html=1;exitX=0.5;exitY=1;exitDx=0;exitDy=0;entryX=0.5;entryY=0;entryDx=0;entryDy=0;" parent="1" source="BUo7MnpyOWrACCl7GvEu-2" target="BUo7MnpyOWrACCl7GvEu-10" edge="1">
          <mxGeometry relative="1" as="geometry" />
        </mxCell>
        <mxCell id="BUo7MnpyOWrACCl7GvEu-2" value="" style="rounded=0;whiteSpace=wrap;html=1;" parent="1" vertex="1">
          <mxGeometry x="150" y="160" width="1060" height="120" as="geometry" />
        </mxCell>
        <mxCell id="BUo7MnpyOWrACCl7GvEu-3" value="AI业务配置" style="rounded=0;whiteSpace=wrap;html=1;" parent="1" vertex="1">
          <mxGeometry x="170" y="190" width="160" height="60" as="geometry" />
        </mxCell>
        <mxCell id="BUo7MnpyOWrACCl7GvEu-4" value="商业化策略配置" style="rounded=0;whiteSpace=wrap;html=1;" parent="1" vertex="1">
          <mxGeometry x="340" y="190" width="160" height="60" as="geometry" />
        </mxCell>
        <mxCell id="BUo7MnpyOWrACCl7GvEu-5" value="业务自定义配置" style="rounded=0;whiteSpace=wrap;html=1;" parent="1" vertex="1">
          <mxGeometry x="510" y="190" width="160" height="60" as="geometry" />
        </mxCell>
        <mxCell id="BUo7MnpyOWrACCl7GvEu-7" value="klink协议配置" style="rounded=0;whiteSpace=wrap;html=1;" parent="1" vertex="1">
          <mxGeometry x="680" y="190" width="160" height="60" as="geometry" />
        </mxCell>
        <mxCell id="BUo7MnpyOWrACCl7GvEu-8" value="风控配置" style="rounded=0;whiteSpace=wrap;html=1;" parent="1" vertex="1">
          <mxGeometry x="850" y="190" width="160" height="60" as="geometry" />
        </mxCell>
        <mxCell id="BUo7MnpyOWrACCl7GvEu-9" value="......&lt;span style=&quot;background-color: initial;&quot;&gt;其他配置&lt;/span&gt;" style="rounded=0;whiteSpace=wrap;html=1;" parent="1" vertex="1">
          <mxGeometry x="1020" y="190" width="160" height="60" as="geometry" />
        </mxCell>
        <mxCell id="BUo7MnpyOWrACCl7GvEu-10" value="任务工作流" style="rounded=0;whiteSpace=wrap;html=1;" parent="1" vertex="1">
          <mxGeometry x="150" y="360" width="1060" height="70" as="geometry" />
        </mxCell>
        <mxCell id="-SrFhzklI3_z7_42w4xo-2" value="&lt;span style=&quot;color: rgba(0, 0, 0, 0); font-family: monospace; font-size: 0px; text-align: start; text-wrap: nowrap;&quot;&gt;%3CmxGraphModel%3E%3Croot%3E%3CmxCell%20id%3D%220%22%2F%3E%3CmxCell%20id%3D%221%22%20parent%3D%220%22%2F%3E%3CmxCell%20id%3D%222%22%20value%3D%22%22%20style%3D%22rounded%3D0%3BwhiteSpace%3Dwrap%3Bhtml%3D1%3B%22%20vertex%3D%221%22%20parent%3D%221%22%3E%3CmxGeometry%20x%3D%221500%22%20y%3D%22310%22%20width%3D%22120%22%20height%3D%2260%22%20as%3D%22geometry%22%2F%3E%3C%2FmxCell%3E%3C%2Froot%3E%3C%2FmxGraphModel%3E&lt;/span&gt;" style="rounded=0;whiteSpace=wrap;html=1;" vertex="1" parent="1">
          <mxGeometry x="1320" y="240" width="760" height="710" as="geometry" />
        </mxCell>
        <mxCell id="-SrFhzklI3_z7_42w4xo-3" value="" style="rounded=0;whiteSpace=wrap;html=1;" vertex="1" parent="1">
          <mxGeometry x="1500" y="310" width="120" height="60" as="geometry" />
        </mxCell>
        <mxCell id="-SrFhzklI3_z7_42w4xo-4" value="输入" style="rounded=0;whiteSpace=wrap;html=1;" vertex="1" parent="1">
          <mxGeometry x="1500" y="525" width="150" height="65" as="geometry" />
        </mxCell>
        <mxCell id="-SrFhzklI3_z7_42w4xo-5" value="历史记录回放" style="rounded=0;whiteSpace=wrap;html=1;fontSize=14;" vertex="1" parent="1">
          <mxGeometry x="1510" y="750" width="150" height="60" as="geometry" />
        </mxCell>
        <mxCell id="-SrFhzklI3_z7_42w4xo-6" value="任务仿真模拟" style="rounded=0;whiteSpace=wrap;html=1;fontSize=14;" vertex="1" parent="1">
          <mxGeometry x="1680" y="750" width="150" height="60" as="geometry" />
        </mxCell>
        <mxCell id="-SrFhzklI3_z7_42w4xo-7" value="任务Debug能力" style="rounded=0;whiteSpace=wrap;html=1;fontSize=14;" vertex="1" parent="1">
          <mxGeometry x="1850" y="750" width="150" height="60" as="geometry" />
        </mxCell>
        <mxCell id="-SrFhzklI3_z7_42w4xo-8" value="配置" style="rounded=0;whiteSpace=wrap;html=1;" vertex="1" parent="1">
          <mxGeometry x="2450" y="90" width="120" height="40" as="geometry" />
        </mxCell>
        <mxCell id="-SrFhzklI3_z7_42w4xo-9" value="流程" style="text;html=1;align=center;verticalAlign=middle;resizable=0;points=[];autosize=1;strokeColor=none;fillColor=none;" vertex="1" parent="1">
          <mxGeometry x="2520" y="170" width="50" height="30" as="geometry" />
        </mxCell>
        <mxCell id="-SrFhzklI3_z7_42w4xo-10" value="工作流" style="whiteSpace=wrap;html=1;" vertex="1" parent="1">
          <mxGeometry x="2590" y="90" width="100" height="40" as="geometry" />
        </mxCell>
        <mxCell id="-SrFhzklI3_z7_42w4xo-11" value="输出" style="whiteSpace=wrap;html=1;" vertex="1" parent="1">
          <mxGeometry x="2720" y="90" width="120" height="40" as="geometry" />
        </mxCell>
        <mxCell id="-SrFhzklI3_z7_42w4xo-40" value="" style="rounded=0;whiteSpace=wrap;html=1;" vertex="1" parent="1">
          <mxGeometry x="2790" y="240" width="570" height="70" as="geometry" />
        </mxCell>
        <mxCell id="-SrFhzklI3_z7_42w4xo-47" value="" style="rounded=0;whiteSpace=wrap;html=1;" vertex="1" parent="1">
          <mxGeometry x="2580" y="480" width="120" height="60" as="geometry" />
        </mxCell>
        <mxCell id="-SrFhzklI3_z7_42w4xo-49" value="" style="group" vertex="1" connectable="0" parent="1">
          <mxGeometry x="2850" y="450" width="570" height="370" as="geometry" />
        </mxCell>
        <mxCell id="-SrFhzklI3_z7_42w4xo-31" value="" style="rounded=0;whiteSpace=wrap;html=1;fillColor=#cdeb8b;strokeColor=#36393d;" vertex="1" parent="-SrFhzklI3_z7_42w4xo-49">
          <mxGeometry width="570" height="370" as="geometry" />
        </mxCell>
        <mxCell id="-SrFhzklI3_z7_42w4xo-12" value="节点(执行器模块)" style="whiteSpace=wrap;html=1;" vertex="1" parent="-SrFhzklI3_z7_42w4xo-49">
          <mxGeometry x="25" y="60" width="155" height="40" as="geometry" />
        </mxCell>
        <mxCell id="-SrFhzklI3_z7_42w4xo-13" value="锚点(参数输入输出)" style="whiteSpace=wrap;html=1;" vertex="1" parent="-SrFhzklI3_z7_42w4xo-49">
          <mxGeometry x="210" y="60" width="155" height="40" as="geometry" />
        </mxCell>
        <mxCell id="-SrFhzklI3_z7_42w4xo-14" value="边（执行器调度编排关系）" style="whiteSpace=wrap;html=1;" vertex="1" parent="-SrFhzklI3_z7_42w4xo-49">
          <mxGeometry x="390" y="60" width="155" height="40" as="geometry" />
        </mxCell>
        <mxCell id="-SrFhzklI3_z7_42w4xo-16" value="文生文节点" style="rounded=0;whiteSpace=wrap;html=1;labelBackgroundColor=none;fillColor=#6a00ff;strokeColor=#3700CC;fontColor=#ffffff;" vertex="1" parent="-SrFhzklI3_z7_42w4xo-49">
          <mxGeometry x="25" y="115" width="155" height="35" as="geometry" />
        </mxCell>
        <mxCell id="-SrFhzklI3_z7_42w4xo-17" value="文生图&lt;span style=&quot;background-color: initial;&quot;&gt;节点&lt;/span&gt;" style="rounded=0;whiteSpace=wrap;html=1;fillColor=#6a00ff;fontColor=#ffffff;strokeColor=#3700CC;" vertex="1" parent="-SrFhzklI3_z7_42w4xo-49">
          <mxGeometry x="25" y="160" width="155" height="35" as="geometry" />
        </mxCell>
        <mxCell id="-SrFhzklI3_z7_42w4xo-18" value="&lt;span style=&quot;background-color: initial;&quot;&gt;风控节点&lt;/span&gt;" style="rounded=0;whiteSpace=wrap;html=1;fillColor=#6a00ff;fontColor=#ffffff;strokeColor=#3700CC;" vertex="1" parent="-SrFhzklI3_z7_42w4xo-49">
          <mxGeometry x="25" y="260" width="155" height="35" as="geometry" />
        </mxCell>
        <mxCell id="-SrFhzklI3_z7_42w4xo-19" value="视频抽帧节点" style="rounded=0;whiteSpace=wrap;html=1;fillColor=#6a00ff;fontColor=#ffffff;strokeColor=#3700CC;" vertex="1" parent="-SrFhzklI3_z7_42w4xo-49">
          <mxGeometry x="25" y="210" width="155" height="35" as="geometry" />
        </mxCell>
        <mxCell id="-SrFhzklI3_z7_42w4xo-20" value="......" style="rounded=0;whiteSpace=wrap;html=1;fillColor=#6a00ff;fontColor=#ffffff;strokeColor=#3700CC;" vertex="1" parent="-SrFhzklI3_z7_42w4xo-49">
          <mxGeometry x="25" y="310" width="155" height="35" as="geometry" />
        </mxCell>
        <mxCell id="-SrFhzklI3_z7_42w4xo-21" value="字符串(列表)参数锚点" style="rounded=0;whiteSpace=wrap;html=1;labelBackgroundColor=none;fillColor=#0050ef;strokeColor=#001DBC;fontColor=#ffffff;" vertex="1" parent="-SrFhzklI3_z7_42w4xo-49">
          <mxGeometry x="210" y="115" width="155" height="35" as="geometry" />
        </mxCell>
        <mxCell id="-SrFhzklI3_z7_42w4xo-22" value="资源文件(列表)参数锚点" style="rounded=0;whiteSpace=wrap;html=1;labelBackgroundColor=none;fillColor=#0050ef;strokeColor=#001DBC;fontColor=#ffffff;" vertex="1" parent="-SrFhzklI3_z7_42w4xo-49">
          <mxGeometry x="210" y="160" width="155" height="35" as="geometry" />
        </mxCell>
        <mxCell id="-SrFhzklI3_z7_42w4xo-23" value="JSON参数锚点" style="rounded=0;whiteSpace=wrap;html=1;labelBackgroundColor=none;fillColor=#0050ef;strokeColor=#001DBC;fontColor=#ffffff;" vertex="1" parent="-SrFhzklI3_z7_42w4xo-49">
          <mxGeometry x="210" y="210" width="155" height="35" as="geometry" />
        </mxCell>
        <mxCell id="-SrFhzklI3_z7_42w4xo-24" value="Map映射参数锚点" style="rounded=0;whiteSpace=wrap;html=1;labelBackgroundColor=none;fillColor=#0050ef;strokeColor=#001DBC;fontColor=#ffffff;" vertex="1" parent="-SrFhzklI3_z7_42w4xo-49">
          <mxGeometry x="210" y="260" width="155" height="35" as="geometry" />
        </mxCell>
        <mxCell id="-SrFhzklI3_z7_42w4xo-25" value="......" style="rounded=0;whiteSpace=wrap;html=1;labelBackgroundColor=none;fillColor=#0050ef;strokeColor=#001DBC;fontColor=#ffffff;" vertex="1" parent="-SrFhzklI3_z7_42w4xo-49">
          <mxGeometry x="210" y="310" width="155" height="35" as="geometry" />
        </mxCell>
        <mxCell id="-SrFhzklI3_z7_42w4xo-26" value="普通关系边" style="rounded=0;whiteSpace=wrap;html=1;labelBackgroundColor=none;fillColor=#76608a;strokeColor=#432D57;fontColor=#ffffff;" vertex="1" parent="-SrFhzklI3_z7_42w4xo-49">
          <mxGeometry x="390" y="115" width="155" height="35" as="geometry" />
        </mxCell>
        <mxCell id="-SrFhzklI3_z7_42w4xo-27" value="任务成功边" style="rounded=0;whiteSpace=wrap;html=1;labelBackgroundColor=none;fillColor=#76608a;strokeColor=#432D57;fontColor=#ffffff;" vertex="1" parent="-SrFhzklI3_z7_42w4xo-49">
          <mxGeometry x="390" y="160" width="155" height="35" as="geometry" />
        </mxCell>
        <mxCell id="-SrFhzklI3_z7_42w4xo-28" value="任务失败边" style="rounded=0;whiteSpace=wrap;html=1;labelBackgroundColor=none;fillColor=#76608a;strokeColor=#432D57;fontColor=#ffffff;" vertex="1" parent="-SrFhzklI3_z7_42w4xo-49">
          <mxGeometry x="390" y="210" width="155" height="35" as="geometry" />
        </mxCell>
        <mxCell id="-SrFhzklI3_z7_42w4xo-29" value="任务执行边" style="rounded=0;whiteSpace=wrap;html=1;labelBackgroundColor=none;fillColor=#76608a;strokeColor=#432D57;fontColor=#ffffff;" vertex="1" parent="-SrFhzklI3_z7_42w4xo-49">
          <mxGeometry x="390" y="260" width="155" height="35" as="geometry" />
        </mxCell>
        <mxCell id="-SrFhzklI3_z7_42w4xo-30" value="......" style="rounded=0;whiteSpace=wrap;html=1;labelBackgroundColor=none;fillColor=#76608a;strokeColor=#432D57;fontColor=#ffffff;" vertex="1" parent="-SrFhzklI3_z7_42w4xo-49">
          <mxGeometry x="390" y="310" width="155" height="35" as="geometry" />
        </mxCell>
        <mxCell id="-SrFhzklI3_z7_42w4xo-36" value="" style="endArrow=classic;startArrow=classic;html=1;rounded=0;exitX=1;exitY=0.5;exitDx=0;exitDy=0;entryX=0;entryY=0.5;entryDx=0;entryDy=0;" edge="1" parent="-SrFhzklI3_z7_42w4xo-49" source="-SrFhzklI3_z7_42w4xo-12" target="-SrFhzklI3_z7_42w4xo-13">
          <mxGeometry width="50" height="50" relative="1" as="geometry">
            <mxPoint x="150" y="240" as="sourcePoint" />
            <mxPoint x="200" y="190" as="targetPoint" />
          </mxGeometry>
        </mxCell>
        <mxCell id="-SrFhzklI3_z7_42w4xo-38" value="" style="endArrow=classic;startArrow=classic;html=1;rounded=0;entryX=0;entryY=0.5;entryDx=0;entryDy=0;exitX=1;exitY=0.5;exitDx=0;exitDy=0;" edge="1" parent="-SrFhzklI3_z7_42w4xo-49" source="-SrFhzklI3_z7_42w4xo-13" target="-SrFhzklI3_z7_42w4xo-14">
          <mxGeometry width="50" height="50" relative="1" as="geometry">
            <mxPoint x="150" y="240" as="sourcePoint" />
            <mxPoint x="200" y="190" as="targetPoint" />
          </mxGeometry>
        </mxCell>
        <mxCell id="-SrFhzklI3_z7_42w4xo-45" value="工作流模块" style="text;html=1;align=center;verticalAlign=middle;whiteSpace=wrap;rounded=0;" vertex="1" parent="-SrFhzklI3_z7_42w4xo-49">
          <mxGeometry x="242.5" y="16" width="90" height="30" as="geometry" />
        </mxCell>
        <mxCell id="-SrFhzklI3_z7_42w4xo-50" value="" style="rounded=0;whiteSpace=wrap;html=1;fillColor=#cdeb8b;strokeColor=#36393d;" vertex="1" parent="1">
          <mxGeometry x="3440" y="450" width="180" height="370" as="geometry" />
        </mxCell>
        <mxCell id="-SrFhzklI3_z7_42w4xo-51" value="参数回放" style="rounded=0;whiteSpace=wrap;html=1;" vertex="1" parent="1">
          <mxGeometry x="3450" y="510" width="160" height="40" as="geometry" />
        </mxCell>
        <mxCell id="-SrFhzklI3_z7_42w4xo-52" value="历史记录回放模块" style="text;html=1;align=center;verticalAlign=middle;whiteSpace=wrap;rounded=0;" vertex="1" parent="1">
          <mxGeometry x="3480" y="470" width="100" height="30" as="geometry" />
        </mxCell>
        <mxCell id="-SrFhzklI3_z7_42w4xo-53" value="任务状态展示" style="rounded=0;whiteSpace=wrap;html=1;" vertex="1" parent="1">
          <mxGeometry x="3450" y="564.5" width="160" height="40" as="geometry" />
        </mxCell>
        <mxCell id="-SrFhzklI3_z7_42w4xo-54" value="" style="rounded=0;whiteSpace=wrap;html=1;fillColor=#cdeb8b;strokeColor=#36393d;" vertex="1" parent="1">
          <mxGeometry x="3640" y="450" width="180" height="370" as="geometry" />
        </mxCell>
      </root>
    </mxGraphModel>
  </diagram>
</mxfile>
